<mxfile host="app.diagrams.net" modified="2020-05-03T19:05:03.052Z" agent="5.0 (X11; Linux x86_64) AppleWebKit/537.36 (KHTML, like Gecko) Chrome/80.0.3987.116 Safari/537.36" etag="hLsSN0ZW1CT4te0NSakw" version="12.9.13" type="github">
  <diagram id="Y9gekggCoo7oQ8FMOKqc" name="Page-1">
    <mxGraphModel dx="1266" dy="670" grid="1" gridSize="10" guides="1" tooltips="1" connect="1" arrows="1" fold="1" page="1" pageScale="1" pageWidth="1654" pageHeight="2336" math="0" shadow="0">
      <root>
        <mxCell id="0" />
        <mxCell id="1" parent="0" />
        <mxCell id="ekrngiIVuQT2fDylJq5U-9" value="Login" style="html=1;strokeColor=none;fillColor=#0079D6;labelPosition=center;verticalLabelPosition=middle;verticalAlign=top;align=center;fontSize=12;outlineConnect=0;spacingTop=-6;fontColor=#FFFFFF;shape=mxgraph.sitemap.login;" vertex="1" parent="1">
          <mxGeometry x="480" y="280" width="120" height="70" as="geometry" />
        </mxCell>
        <mxCell id="ekrngiIVuQT2fDylJq5U-24" style="edgeStyle=orthogonalEdgeStyle;rounded=0;orthogonalLoop=1;jettySize=auto;html=1;entryX=0.093;entryY=0.491;entryDx=0;entryDy=0;entryPerimeter=0;" edge="1" parent="1" source="ekrngiIVuQT2fDylJq5U-11" target="ekrngiIVuQT2fDylJq5U-22">
          <mxGeometry relative="1" as="geometry" />
        </mxCell>
        <mxCell id="ekrngiIVuQT2fDylJq5U-11" value="" style="shape=image;html=1;verticalAlign=top;verticalLabelPosition=bottom;labelBackgroundColor=#ffffff;imageAspect=0;aspect=fixed;image=https://cdn4.iconfinder.com/data/icons/pretty_office_3/128/sign-up.png" vertex="1" parent="1">
          <mxGeometry x="500" y="81" width="128" height="128" as="geometry" />
        </mxCell>
        <mxCell id="ekrngiIVuQT2fDylJq5U-12" value="" style="group" vertex="1" connectable="0" parent="1">
          <mxGeometry x="40" y="50" width="300" height="150" as="geometry" />
        </mxCell>
        <mxCell id="ekrngiIVuQT2fDylJq5U-1" value="" style="verticalLabelPosition=bottom;aspect=fixed;html=1;verticalAlign=top;strokeColor=none;align=center;outlineConnect=0;shape=mxgraph.citrix.browser;" vertex="1" parent="ekrngiIVuQT2fDylJq5U-12">
          <mxGeometry y="50" width="58.97" height="90" as="geometry" />
        </mxCell>
        <mxCell id="ekrngiIVuQT2fDylJq5U-4" value="&lt;span style=&quot;font-size: 21px&quot;&gt;&lt;b&gt;Browser&lt;/b&gt;&lt;/span&gt;" style="text;html=1;strokeColor=none;fillColor=none;align=center;verticalAlign=middle;whiteSpace=wrap;rounded=0;" vertex="1" parent="ekrngiIVuQT2fDylJq5U-12">
          <mxGeometry x="16.57424522489218" y="10" width="49.291435613062234" height="20" as="geometry" />
        </mxCell>
        <mxCell id="ekrngiIVuQT2fDylJq5U-5" value="" style="pointerEvents=1;shadow=0;dashed=0;html=1;strokeColor=none;fillColor=#505050;labelPosition=center;verticalLabelPosition=bottom;verticalAlign=top;outlineConnect=0;align=center;shape=mxgraph.office.concepts.web_page;" vertex="1" parent="ekrngiIVuQT2fDylJq5U-12">
          <mxGeometry x="176.77141096734442" y="40" width="110.90573012939004" height="110" as="geometry" />
        </mxCell>
        <mxCell id="ekrngiIVuQT2fDylJq5U-7" style="edgeStyle=orthogonalEdgeStyle;rounded=0;orthogonalLoop=1;jettySize=auto;html=1;" edge="1" parent="ekrngiIVuQT2fDylJq5U-12" source="ekrngiIVuQT2fDylJq5U-1" target="ekrngiIVuQT2fDylJq5U-5">
          <mxGeometry relative="1" as="geometry">
            <mxPoint x="152.12569316081334" y="101.05500000000006" as="targetPoint" />
          </mxGeometry>
        </mxCell>
        <mxCell id="ekrngiIVuQT2fDylJq5U-6" value="&lt;span style=&quot;font-size: 21px&quot;&gt;&lt;b&gt;Site Web Page&lt;/b&gt;&lt;/span&gt;" style="text;html=1;strokeColor=none;fillColor=none;align=center;verticalAlign=middle;whiteSpace=wrap;rounded=0;" vertex="1" parent="ekrngiIVuQT2fDylJq5U-12">
          <mxGeometry x="127.4799753542822" width="172.52002464571783" height="20" as="geometry" />
        </mxCell>
        <mxCell id="ekrngiIVuQT2fDylJq5U-19" value="&lt;b style=&quot;font-family: &amp;#34;helvetica&amp;#34; ; font-size: 21px ; font-style: normal ; letter-spacing: normal ; text-align: center ; text-indent: 0px ; text-transform: none ; word-spacing: 0px&quot;&gt;Create account&lt;/b&gt;" style="text;whiteSpace=wrap;html=1;" vertex="1" parent="1">
          <mxGeometry x="490" y="51" width="170" height="30" as="geometry" />
        </mxCell>
        <mxCell id="ekrngiIVuQT2fDylJq5U-20" style="edgeStyle=orthogonalEdgeStyle;rounded=0;orthogonalLoop=1;jettySize=auto;html=1;" edge="1" parent="1" source="ekrngiIVuQT2fDylJq5U-5" target="ekrngiIVuQT2fDylJq5U-11">
          <mxGeometry relative="1" as="geometry" />
        </mxCell>
        <mxCell id="ekrngiIVuQT2fDylJq5U-22" value="" style="shape=image;html=1;verticalAlign=top;verticalLabelPosition=bottom;labelBackgroundColor=#ffffff;imageAspect=0;aspect=fixed;image=https://cdn4.iconfinder.com/data/icons/Crysigns_Icon_Pack/128/Select.png" vertex="1" parent="1">
          <mxGeometry x="720" y="92" width="108" height="108" as="geometry" />
        </mxCell>
        <mxCell id="ekrngiIVuQT2fDylJq5U-23" value="&lt;div style=&quot;text-align: center&quot;&gt;&lt;span style=&quot;font-size: 21px&quot;&gt;&lt;font face=&quot;helvetica&quot;&gt;&lt;b&gt;Account created&lt;/b&gt;&lt;/font&gt;&lt;/span&gt;&lt;/div&gt;" style="text;whiteSpace=wrap;html=1;" vertex="1" parent="1">
          <mxGeometry x="710" y="50" width="180" height="30" as="geometry" />
        </mxCell>
        <mxCell id="ekrngiIVuQT2fDylJq5U-25" value="&lt;div style=&quot;text-align: center&quot;&gt;&lt;span style=&quot;font-size: 21px&quot;&gt;&lt;font face=&quot;helvetica&quot;&gt;&lt;b&gt;Log in as&lt;/b&gt;&lt;/font&gt;&lt;/span&gt;&lt;/div&gt;" style="text;whiteSpace=wrap;html=1;" vertex="1" parent="1">
          <mxGeometry x="490" y="240" width="170" height="30" as="geometry" />
        </mxCell>
        <mxCell id="ekrngiIVuQT2fDylJq5U-26" style="edgeStyle=orthogonalEdgeStyle;rounded=0;orthogonalLoop=1;jettySize=auto;html=1;entryX=0;entryY=0.5;entryDx=0;entryDy=0;entryPerimeter=0;" edge="1" parent="1" source="ekrngiIVuQT2fDylJq5U-5" target="ekrngiIVuQT2fDylJq5U-9">
          <mxGeometry relative="1" as="geometry">
            <Array as="points">
              <mxPoint x="260" y="320" />
              <mxPoint x="480" y="320" />
            </Array>
          </mxGeometry>
        </mxCell>
        <mxCell id="ekrngiIVuQT2fDylJq5U-36" style="edgeStyle=orthogonalEdgeStyle;rounded=0;orthogonalLoop=1;jettySize=auto;html=1;" edge="1" parent="1" source="ekrngiIVuQT2fDylJq5U-27" target="ekrngiIVuQT2fDylJq5U-32">
          <mxGeometry relative="1" as="geometry" />
        </mxCell>
        <mxCell id="ekrngiIVuQT2fDylJq5U-38" style="edgeStyle=orthogonalEdgeStyle;rounded=0;orthogonalLoop=1;jettySize=auto;html=1;entryX=0;entryY=0.5;entryDx=0;entryDy=0;" edge="1" parent="1" source="ekrngiIVuQT2fDylJq5U-27" target="ekrngiIVuQT2fDylJq5U-37">
          <mxGeometry relative="1" as="geometry">
            <mxPoint x="200" y="840" as="targetPoint" />
            <Array as="points">
              <mxPoint x="200" y="844" />
            </Array>
          </mxGeometry>
        </mxCell>
        <mxCell id="ekrngiIVuQT2fDylJq5U-27" value="" style="pointerEvents=1;shadow=0;dashed=0;html=1;strokeColor=none;labelPosition=center;verticalLabelPosition=bottom;verticalAlign=top;align=center;fillColor=#505050;shape=mxgraph.mscae.intune.account_portal" vertex="1" parent="1">
          <mxGeometry x="140" y="570" width="120" height="120" as="geometry" />
        </mxCell>
        <mxCell id="ekrngiIVuQT2fDylJq5U-28" value="&lt;span style=&quot;text-indent: 0px&quot;&gt;&lt;font face=&quot;helvetica&quot;&gt;&lt;span style=&quot;font-size: 21px&quot;&gt;&lt;b&gt;Logged&lt;/b&gt;&lt;/span&gt;&lt;/font&gt;&lt;b style=&quot;font-family: &amp;#34;helvetica&amp;#34; ; font-size: 21px ; font-style: normal ; letter-spacing: normal ; text-transform: none ; word-spacing: 0px&quot;&gt;&amp;nbsp;in as (co-) chair&lt;/b&gt;&lt;/span&gt;" style="text;whiteSpace=wrap;html=1;align=center;" vertex="1" parent="1">
          <mxGeometry x="90" y="490" width="230" height="60" as="geometry" />
        </mxCell>
        <mxCell id="ekrngiIVuQT2fDylJq5U-40" style="edgeStyle=orthogonalEdgeStyle;rounded=0;orthogonalLoop=1;jettySize=auto;html=1;exitX=1;exitY=0.5;exitDx=0;exitDy=0;" edge="1" parent="1" source="ekrngiIVuQT2fDylJq5U-32" target="ekrngiIVuQT2fDylJq5U-45">
          <mxGeometry relative="1" as="geometry">
            <mxPoint x="730" y="630" as="targetPoint" />
          </mxGeometry>
        </mxCell>
        <mxCell id="ekrngiIVuQT2fDylJq5U-32" value="" style="shape=image;html=1;verticalAlign=top;verticalLabelPosition=bottom;labelBackgroundColor=#ffffff;imageAspect=0;aspect=fixed;image=https://cdn1.iconfinder.com/data/icons/hawcons/32/699311-icon-40-clipboard-list-128.png" vertex="1" parent="1">
          <mxGeometry x="400" y="566" width="128" height="128" as="geometry" />
        </mxCell>
        <mxCell id="ekrngiIVuQT2fDylJq5U-33" value="&lt;div style=&quot;text-align: center&quot;&gt;&lt;font face=&quot;helvetica&quot;&gt;&lt;span style=&quot;font-size: 21px&quot;&gt;&lt;b&gt;List of conferences in witch he is (co-) chair&lt;/b&gt;&lt;/span&gt;&lt;/font&gt;&lt;/div&gt;" style="text;whiteSpace=wrap;html=1;" vertex="1" parent="1">
          <mxGeometry x="334" y="490" width="260" height="30" as="geometry" />
        </mxCell>
        <mxCell id="ekrngiIVuQT2fDylJq5U-66" style="edgeStyle=orthogonalEdgeStyle;rounded=0;orthogonalLoop=1;jettySize=auto;html=1;entryX=0.077;entryY=0.649;entryDx=0;entryDy=0;entryPerimeter=0;" edge="1" parent="1" source="ekrngiIVuQT2fDylJq5U-37" target="ekrngiIVuQT2fDylJq5U-63">
          <mxGeometry relative="1" as="geometry" />
        </mxCell>
        <mxCell id="ekrngiIVuQT2fDylJq5U-37" value="" style="shape=image;html=1;verticalAlign=top;verticalLabelPosition=bottom;labelBackgroundColor=#ffffff;imageAspect=0;aspect=fixed;image=https://cdn4.iconfinder.com/data/icons/universal-7/614/12_-_Plus-128.png" vertex="1" parent="1">
          <mxGeometry x="400" y="780" width="128" height="128" as="geometry" />
        </mxCell>
        <mxCell id="ekrngiIVuQT2fDylJq5U-39" value="&lt;div&gt;&lt;font face=&quot;helvetica&quot;&gt;&lt;span style=&quot;font-size: 21px&quot;&gt;&lt;b&gt;Create conference Page&lt;/b&gt;&lt;/span&gt;&lt;/font&gt;&lt;/div&gt;" style="text;whiteSpace=wrap;html=1;align=center;" vertex="1" parent="1">
          <mxGeometry x="234" y="750" width="460" height="30" as="geometry" />
        </mxCell>
        <mxCell id="ekrngiIVuQT2fDylJq5U-43" value="&lt;font face=&quot;helvetica&quot; size=&quot;1&quot;&gt;&lt;b style=&quot;font-size: 16px&quot;&gt;Select a conference&lt;/b&gt;&lt;/font&gt;" style="text;whiteSpace=wrap;html=1;align=center;" vertex="1" parent="1">
          <mxGeometry x="520" y="600" width="200" height="30" as="geometry" />
        </mxCell>
        <mxCell id="ekrngiIVuQT2fDylJq5U-55" style="edgeStyle=orthogonalEdgeStyle;rounded=0;orthogonalLoop=1;jettySize=auto;html=1;" edge="1" parent="1" source="ekrngiIVuQT2fDylJq5U-45" target="ekrngiIVuQT2fDylJq5U-46">
          <mxGeometry relative="1" as="geometry" />
        </mxCell>
        <mxCell id="ekrngiIVuQT2fDylJq5U-67" style="edgeStyle=orthogonalEdgeStyle;rounded=0;orthogonalLoop=1;jettySize=auto;html=1;entryX=0.569;entryY=0.155;entryDx=0;entryDy=0;entryPerimeter=0;" edge="1" parent="1" source="ekrngiIVuQT2fDylJq5U-45" target="ekrngiIVuQT2fDylJq5U-63">
          <mxGeometry relative="1" as="geometry" />
        </mxCell>
        <mxCell id="ekrngiIVuQT2fDylJq5U-45" value="" style="shape=image;html=1;verticalAlign=top;verticalLabelPosition=bottom;labelBackgroundColor=#ffffff;imageAspect=0;aspect=fixed;image=https://cdn1.iconfinder.com/data/icons/hawcons/32/699311-icon-40-clipboard-list-128.png" vertex="1" parent="1">
          <mxGeometry x="690" y="566" width="128" height="128" as="geometry" />
        </mxCell>
        <mxCell id="ekrngiIVuQT2fDylJq5U-60" style="edgeStyle=orthogonalEdgeStyle;rounded=0;orthogonalLoop=1;jettySize=auto;html=1;entryX=0;entryY=0.5;entryDx=0;entryDy=0;" edge="1" parent="1" source="ekrngiIVuQT2fDylJq5U-46" target="ekrngiIVuQT2fDylJq5U-59">
          <mxGeometry relative="1" as="geometry" />
        </mxCell>
        <mxCell id="ekrngiIVuQT2fDylJq5U-46" value="" style="shape=image;html=1;verticalAlign=top;verticalLabelPosition=bottom;labelBackgroundColor=#ffffff;imageAspect=0;aspect=fixed;image=https://cdn1.iconfinder.com/data/icons/media-player-long-shadow/50/Settings-128.png" vertex="1" parent="1">
          <mxGeometry x="950" y="566" width="128" height="128" as="geometry" />
        </mxCell>
        <mxCell id="ekrngiIVuQT2fDylJq5U-54" value="&lt;div style=&quot;text-align: center&quot;&gt;&lt;font face=&quot;helvetica&quot;&gt;&lt;span style=&quot;font-size: 21px&quot;&gt;&lt;b&gt;Conference details and List of proposals&lt;/b&gt;&lt;/span&gt;&lt;/font&gt;&lt;br&gt;&lt;/div&gt;" style="text;whiteSpace=wrap;html=1;" vertex="1" parent="1">
          <mxGeometry x="624" y="505" width="260" height="30" as="geometry" />
        </mxCell>
        <mxCell id="ekrngiIVuQT2fDylJq5U-56" value="&lt;font face=&quot;helvetica&quot; size=&quot;1&quot;&gt;&lt;b style=&quot;font-size: 16px&quot;&gt;Select a proposel&lt;/b&gt;&lt;/font&gt;" style="text;whiteSpace=wrap;html=1;align=center;" vertex="1" parent="1">
          <mxGeometry x="760" y="600" width="220" height="30" as="geometry" />
        </mxCell>
        <mxCell id="ekrngiIVuQT2fDylJq5U-58" value="&lt;div style=&quot;text-align: center&quot;&gt;&lt;font face=&quot;helvetica&quot;&gt;&lt;span style=&quot;font-size: 21px&quot;&gt;&lt;b&gt;Proposal details&amp;nbsp;&lt;/b&gt;&lt;/span&gt;&lt;/font&gt;&lt;/div&gt;" style="text;whiteSpace=wrap;html=1;" vertex="1" parent="1">
          <mxGeometry x="930" y="520" width="260" height="30" as="geometry" />
        </mxCell>
        <mxCell id="ekrngiIVuQT2fDylJq5U-78" style="edgeStyle=orthogonalEdgeStyle;rounded=0;orthogonalLoop=1;jettySize=auto;html=1;entryX=0;entryY=0.25;entryDx=0;entryDy=0;" edge="1" parent="1" source="ekrngiIVuQT2fDylJq5U-63" target="ekrngiIVuQT2fDylJq5U-72">
          <mxGeometry relative="1" as="geometry" />
        </mxCell>
        <mxCell id="ekrngiIVuQT2fDylJq5U-63" value="&lt;font size=&quot;1&quot;&gt;&lt;b style=&quot;font-size: 20px&quot;&gt;Edit conference page&lt;/b&gt;&lt;/font&gt;" style="html=1;verticalLabelPosition=bottom;align=center;labelBackgroundColor=#ffffff;verticalAlign=top;strokeWidth=2;strokeColor=#0080F0;shadow=0;dashed=0;shape=mxgraph.ios7.icons.edit;" vertex="1" parent="1">
          <mxGeometry x="680" y="760" width="130" height="129.4" as="geometry" />
        </mxCell>
        <mxCell id="ekrngiIVuQT2fDylJq5U-70" value="" style="group" vertex="1" connectable="0" parent="1">
          <mxGeometry x="1180" y="520" width="300" height="205" as="geometry" />
        </mxCell>
        <mxCell id="ekrngiIVuQT2fDylJq5U-59" value="&lt;ul&gt;&lt;li style=&quot;font-size: 16px&quot;&gt;Abstract/Paper&lt;/li&gt;&lt;li style=&quot;font-size: 16px&quot;&gt;Assign to PC&lt;/li&gt;&lt;li style=&quot;font-size: 16px&quot;&gt;Accept/Reject&lt;/li&gt;&lt;li style=&quot;font-size: 16px&quot;&gt;PC members info for proposal&lt;/li&gt;&lt;li style=&quot;font-size: 16px&quot;&gt;Proposal info&lt;/li&gt;&lt;/ul&gt;" style="text;strokeColor=none;fillColor=none;html=1;whiteSpace=wrap;verticalAlign=middle;overflow=hidden;" vertex="1" parent="ekrngiIVuQT2fDylJq5U-70">
          <mxGeometry y="15" width="300" height="190" as="geometry" />
        </mxCell>
        <mxCell id="ekrngiIVuQT2fDylJq5U-61" value="&lt;div style=&quot;text-align: center&quot;&gt;&lt;span style=&quot;font-size: 16px&quot;&gt;&lt;font face=&quot;helvetica&quot;&gt;&lt;b&gt;Elements on UI&lt;/b&gt;&lt;/font&gt;&lt;/span&gt;&lt;/div&gt;" style="text;whiteSpace=wrap;html=1;" vertex="1" parent="ekrngiIVuQT2fDylJq5U-70">
          <mxGeometry x="30" width="160" height="30" as="geometry" />
        </mxCell>
        <mxCell id="ekrngiIVuQT2fDylJq5U-71" value="" style="group" vertex="1" connectable="0" parent="1">
          <mxGeometry x="921" y="771" width="300" height="170" as="geometry" />
        </mxCell>
        <mxCell id="ekrngiIVuQT2fDylJq5U-72" value="&lt;ul&gt;&lt;li&gt;&lt;span&gt;&lt;span style=&quot;font-size: 16px&quot;&gt;Name of conference&lt;/span&gt;&lt;/span&gt;&lt;/li&gt;&lt;li&gt;&lt;span&gt;&lt;span style=&quot;font-size: 16px&quot;&gt;Time interval in which it takes place&lt;/span&gt;&lt;/span&gt;&lt;br&gt;&lt;/li&gt;&lt;li&gt;&lt;span&gt;&lt;span style=&quot;font-size: 16px&quot;&gt;The &quot;call for papers&quot;&lt;/span&gt;&lt;br&gt;&lt;/span&gt;&lt;/li&gt;&lt;li style=&quot;font-size: 16px&quot;&gt;Deadlines&lt;/li&gt;&lt;li style=&quot;font-size: 16px&quot;&gt;Fields for PC members&lt;/li&gt;&lt;li style=&quot;font-size: 16px&quot;&gt;Conference sections and program&lt;/li&gt;&lt;/ul&gt;" style="text;strokeColor=none;fillColor=none;html=1;whiteSpace=wrap;verticalAlign=middle;overflow=hidden;" vertex="1" parent="ekrngiIVuQT2fDylJq5U-71">
          <mxGeometry x="-20" y="21.22" width="300" height="127.56" as="geometry" />
        </mxCell>
        <mxCell id="ekrngiIVuQT2fDylJq5U-73" value="&lt;div style=&quot;text-align: center&quot;&gt;&lt;span style=&quot;font-size: 16px&quot;&gt;&lt;font face=&quot;helvetica&quot;&gt;&lt;b&gt;Elements on UI&lt;/b&gt;&lt;/font&gt;&lt;/span&gt;&lt;/div&gt;" style="text;whiteSpace=wrap;html=1;" vertex="1" parent="ekrngiIVuQT2fDylJq5U-71">
          <mxGeometry x="30" width="160" height="24.878048780487802" as="geometry" />
        </mxCell>
      </root>
    </mxGraphModel>
  </diagram>
</mxfile>
